<?xml version="1.0" encoding="UTF-8" standalone="no" ?>
<!DOCTYPE svg PUBLIC "-//W3C//DTD SVG 1.1//EN" "http://www.w3.org/Graphics/SVG/1.1/DTD/svg11.dtd">
<svg xmlns="http://www.w3.org/2000/svg" xmlns:xlink="http://www.w3.org/1999/xlink" version="1.1" width="1080" height="1080" viewBox="0 0 1080 1080" xml:space="preserve">
<desc>Created with Fabric.js 5.2.4</desc>
<defs>
</defs>
<rect x="0" y="0" width="100%" height="100%" fill="transparent"></rect>
<g transform="matrix(1 0 0 1 540 540)" id="dbafa24e-9d3e-47cb-b05b-30b7ac1ac583"  >
<rect style="stroke: none; stroke-width: 1; stroke-dasharray: none; stroke-linecap: butt; stroke-dashoffset: 0; stroke-linejoin: miter; stroke-miterlimit: 4; fill: rgb(255,255,255); fill-rule: nonzero; opacity: 1; visibility: hidden;" vector-effect="non-scaling-stroke"  x="-540" y="-540" rx="0" ry="0" width="1080" height="1080" />
</g>
<g transform="matrix(1 0 0 1 540 540)" id="61c22985-441e-4fbb-b01d-e2f332ffc082"  >
</g>
<g transform="matrix(1.05 0 0 1.05 540 372.14)"  >
<g style="" vector-effect="non-scaling-stroke"   >
		<g transform="matrix(1 0 0 1 0 0)"  >
<path style="stroke: none; stroke-width: 1; stroke-dasharray: none; stroke-linecap: butt; stroke-dashoffset: 0; stroke-linejoin: miter; stroke-miterlimit: 4; fill: rgb(0,0,0); fill-rule: nonzero; opacity: 1;" vector-effect="non-scaling-stroke"  transform=" translate(-256, -256)" d="M 460.828 426.442 L 418.18399999999997 426.442 L 418.18399999999997 358.18 C 471.67299999999994 321.509 503.472 261.358 503.472 196.299 C 503.472 88.059 415.413 0 307.173 0 C 198.933 0 110.877 88.059 110.877 196.299 C 110.877 261.35900000000004 142.676 321.509 196.164 358.18 L 196.164 392.497 C 182.18699999999998 391.01800000000003 152.653 384.716 125.01699999999998 358.28000000000003 C 106.02799999999998 340.117 90.93399999999998 315.46500000000003 80.15799999999999 285.01200000000006 C 67.39999999999999 248.96100000000007 60.64799999999998 204.53400000000005 60.03299999999999 152.89300000000006 C 79.45199999999998 148.85300000000007 94.088 131.61000000000007 94.088 111.01000000000005 C 94.088 87.42200000000005 74.898 68.23100000000005 51.30899999999999 68.23100000000005 C 27.719999999999985 68.23100000000005 8.52899999999999 87.42100000000005 8.52899999999999 111.00900000000004 C 8.52899999999999 131.65000000000003 23.222999999999992 148.92300000000006 42.69899999999999 152.91800000000003 C 43.85399999999999 254.26300000000003 67.63399999999999 327.683 113.44799999999998 371.192 C 145.87399999999997 401.987 180.19399999999996 408.606 196.16299999999998 409.951 L 196.16299999999998 426.442 L 153.52 426.442 L 153.52 494.672 L 111.01000000000002 494.672 L 111.01000000000002 512 L 503.337 512 L 503.337 494.672 L 460.827 494.672 L 460.827 426.442 z M 25.857 111.01 C 25.857 96.977 37.275 85.559 51.308 85.559 C 65.34100000000001 85.559 76.759 96.977 76.759 111.00999999999999 C 76.759 125.04299999999999 65.34100000000001 136.46099999999998 51.308 136.46099999999998 C 37.27499999999999 136.46099999999998 25.857 125.044 25.857 111.01 z M 128.204 196.299 C 128.204 97.614 208.49 17.328000000000003 307.173 17.328000000000003 C 405.858 17.328000000000003 486.144 97.614 486.144 196.299 C 486.144 257.06100000000004 455.733 313.14 404.788 346.31399999999996 C 375.741 365.25699999999995 341.987 375.27 307.173 375.27 C 272.36 375.27 238.607 365.258 209.56 346.31399999999996 L 209.555 346.311 C 158.616 313.14 128.204 257.06 128.204 196.299 z M 400.857 368.803 L 400.857 426.442 L 213.492 426.442 L 213.492 368.803 C 242.148 384.399 274.227 392.598 307.174 392.598 C 340.122 392.596 372.204 384.398 400.857 368.803 z M 443.5 494.672 L 170.848 494.672 L 170.848 443.77 L 443.5 443.77 L 443.5 494.672 z" stroke-linecap="round" />
</g>
		<g transform="matrix(1 0 0 1 51.18 213.23)"  >
<rect style="stroke: none; stroke-width: 1; stroke-dasharray: none; stroke-linecap: butt; stroke-dashoffset: 0; stroke-linejoin: miter; stroke-miterlimit: 4; fill: rgb(0,0,0); fill-rule: nonzero; opacity: 1;" vector-effect="non-scaling-stroke"  x="-76.762" y="-8.664" rx="0" ry="0" width="153.524" height="17.328" />
</g>
		<g transform="matrix(1 0 0 1 153.52 213.23)"  >
<rect style="stroke: none; stroke-width: 1; stroke-dasharray: none; stroke-linecap: butt; stroke-dashoffset: 0; stroke-linejoin: miter; stroke-miterlimit: 4; fill: rgb(0,0,0); fill-rule: nonzero; opacity: 1;" vector-effect="non-scaling-stroke"  x="-8.5295" y="-8.664" rx="0" ry="0" width="17.059" height="17.328" />
</g>
		<g transform="matrix(1 0 0 1 -51.17 213.23)"  >
<rect style="stroke: none; stroke-width: 1; stroke-dasharray: none; stroke-linecap: butt; stroke-dashoffset: 0; stroke-linejoin: miter; stroke-miterlimit: 4; fill: rgb(0,0,0); fill-rule: nonzero; opacity: 1;" vector-effect="non-scaling-stroke"  x="-8.5285" y="-8.664" rx="0" ry="0" width="17.057" height="17.328" />
</g>
		<g transform="matrix(1 0 0 1 51.17 -59.7)"  >
<path style="stroke: none; stroke-width: 1; stroke-dasharray: none; stroke-linecap: butt; stroke-dashoffset: 0; stroke-linejoin: miter; stroke-miterlimit: 4; fill: rgb(0,0,0); fill-rule: nonzero; opacity: 1;" vector-effect="non-scaling-stroke"  transform=" translate(-307.17, -196.3)" d="M 307.174 127.932 C 269.477 127.932 238.80899999999997 158.601 238.80899999999997 196.298 C 238.80899999999997 233.995 269.477 264.664 307.174 264.664 C 344.871 264.664 375.53999999999996 233.99499999999998 375.53999999999996 196.298 C 375.541 158.601 344.871 127.932 307.174 127.932 z M 307.173 247.337 C 279.032 247.337 256.136 224.44099999999997 256.136 196.298 C 256.136 168.155 279.031 145.26 307.173 145.26 C 335.317 145.26 358.212 168.156 358.212 196.29899999999998 C 358.212 224.441 335.317 247.337 307.173 247.337 z" stroke-linecap="round" />
</g>
		<g transform="matrix(1 0 0 1 51.17 -59.7)"  >
<path style="stroke: none; stroke-width: 1; stroke-dasharray: none; stroke-linecap: butt; stroke-dashoffset: 0; stroke-linejoin: miter; stroke-miterlimit: 4; fill: rgb(0,0,0); fill-rule: nonzero; opacity: 1;" vector-effect="non-scaling-stroke"  transform=" translate(-307.17, -196.3)" d="M 324.095 196.299 C 324.095 205.631 316.504 213.221 307.173 213.221 C 297.842 213.221 290.252 205.629 290.252 196.299 C 290.252 186.967 297.843 179.377 307.173 179.377 L 307.173 162.049 C 288.287 162.049 272.924 177.413 272.924 196.299 C 272.924 215.185 288.28799999999995 230.549 307.173 230.549 C 326.05800000000005 230.549 341.423 215.184 341.423 196.299 L 324.095 196.299 z" stroke-linecap="round" />
</g>
		<g transform="matrix(1 0 0 1 -17.13 -128)"  >
<path style="stroke: none; stroke-width: 1; stroke-dasharray: none; stroke-linecap: butt; stroke-dashoffset: 0; stroke-linejoin: miter; stroke-miterlimit: 4; fill: rgb(0,0,0); fill-rule: nonzero; opacity: 1;" vector-effect="non-scaling-stroke"  transform=" translate(-238.88, -128)" d="M 170.577 196.299 L 187.905 196.299 C 187.905 130.534 241.41 77.03 307.174 77.03 L 307.174 59.702 C 231.854 59.702 170.577 120.979 170.577 196.299 z" stroke-linecap="round" />
</g>
		<g transform="matrix(1 0 0 1 119.47 8.6)"  >
<path style="stroke: none; stroke-width: 1; stroke-dasharray: none; stroke-linecap: butt; stroke-dashoffset: 0; stroke-linejoin: miter; stroke-miterlimit: 4; fill: rgb(0,0,0); fill-rule: nonzero; opacity: 1;" vector-effect="non-scaling-stroke"  transform=" translate(-375.47, -264.6)" d="M 426.442 196.299 C 426.442 262.064 372.938 315.568 307.174 315.568 L 307.174 332.89599999999996 C 382.493 332.89599999999996 443.77 271.61899999999997 443.77 196.29999999999995 L 426.442 196.29999999999995 z" stroke-linecap="round" />
</g>
		<g transform="matrix(1 0 0 1 -76.76 -34.11)"  >
<rect style="stroke: none; stroke-width: 1; stroke-dasharray: none; stroke-linecap: butt; stroke-dashoffset: 0; stroke-linejoin: miter; stroke-miterlimit: 4; fill: rgb(0,0,0); fill-rule: nonzero; opacity: 1;" vector-effect="non-scaling-stroke"  x="-8.5295" y="-8.664" rx="0" ry="0" width="17.059" height="17.328" />
</g>
		<g transform="matrix(1 0 0 1 179.11 -85.29)"  >
<rect style="stroke: none; stroke-width: 1; stroke-dasharray: none; stroke-linecap: butt; stroke-dashoffset: 0; stroke-linejoin: miter; stroke-miterlimit: 4; fill: rgb(0,0,0); fill-rule: nonzero; opacity: 1;" vector-effect="non-scaling-stroke"  x="-8.5295" y="-8.664" rx="0" ry="0" width="17.059" height="17.328" />
</g>
		<g transform="matrix(1 0 0 1 -204.69 -144.99)"  >
<rect style="stroke: none; stroke-width: 1; stroke-dasharray: none; stroke-linecap: butt; stroke-dashoffset: 0; stroke-linejoin: miter; stroke-miterlimit: 4; fill: rgb(0,0,0); fill-rule: nonzero; opacity: 1;" vector-effect="non-scaling-stroke"  x="-8.5295" y="-8.664" rx="0" ry="0" width="17.059" height="17.328" />
</g>
</g>
</g>
</svg>