<?xml version="1.0" encoding="UTF-8" standalone="no" ?>
<!DOCTYPE svg PUBLIC "-//W3C//DTD SVG 1.1//EN" "http://www.w3.org/Graphics/SVG/1.1/DTD/svg11.dtd">
<svg xmlns="http://www.w3.org/2000/svg" xmlns:xlink="http://www.w3.org/1999/xlink" version="1.1" width="1080" height="1080" viewBox="0 0 1080 1080" xml:space="preserve">
<desc>Created with Fabric.js 5.2.4</desc>
<defs>
</defs>
<g transform="matrix(1 0 0 1 540 540)" id="225304b8-4e2f-4ee5-9412-44cb04d5a506"  >
<rect style="stroke: none; stroke-width: 1; stroke-dasharray: none; stroke-linecap: butt; stroke-dashoffset: 0; stroke-linejoin: miter; stroke-miterlimit: 4; fill: rgb(255,255,255); fill-rule: nonzero; opacity: 1; visibility: hidden;" vector-effect="non-scaling-stroke"  x="-540" y="-540" rx="0" ry="0" width="1080" height="1080" />
</g>
<g transform="matrix(1 0 0 1 540 540)" id="5fbe38fd-ac57-42d6-9f43-ad2c7b079036"  >
</g>
<g transform="matrix(1 0 0 1 271.68 357.2)"  >
<g style="" vector-effect="non-scaling-stroke"   >
		<g transform="matrix(1 0 0 1 -123.96 24.09)"  >
<path style="stroke: none; stroke-width: 1; stroke-dasharray: none; stroke-linecap: butt; stroke-dashoffset: 0; stroke-linejoin: miter; stroke-miterlimit: 4; fill: rgb(46,45,48); fill-rule: nonzero; opacity: 1;" vector-effect="non-scaling-stroke"  transform=" translate(-132.04, -280.09)" d="M 191.316 387.727 C 190.014 387.727 188.692 387.412 187.469 386.74699999999996 C 111.725 345.65099999999995 64.67399999999999 266.64099999999996 64.67399999999999 180.54699999999997 C 64.67399999999999 176.08199999999997 68.29199999999999 172.46299999999997 72.758 172.46299999999997 C 77.22399999999999 172.46299999999997 80.842 176.08299999999997 80.842 180.54699999999997 C 80.842 260.70599999999996 124.654 334.27099999999996 195.178 372.53499999999997 C 199.10399999999998 374.66499999999996 200.558 379.57099999999997 198.429 383.496 C 196.964 386.196 194.185 387.727 191.316 387.727 z" stroke-linecap="round" />
</g>
		<g transform="matrix(1 0 0 1 43.12 205.07)"  >
<path style="stroke: none; stroke-width: 1; stroke-dasharray: none; stroke-linecap: butt; stroke-dashoffset: 0; stroke-linejoin: miter; stroke-miterlimit: 4; fill: rgb(46,45,48); fill-rule: nonzero; opacity: 1;" vector-effect="non-scaling-stroke"  transform=" translate(-299.12, -461.07)" d="M 436.489 449.482 L 374.568 449.482 L 374.568 417.684 L 223.663 417.684 L 223.663 449.482 L 161.74200000000002 449.482 C 159.924 449.482 158.45000000000002 450.95500000000004 158.45000000000002 452.774 L 158.45000000000002 504.455 L 439.78100000000006 504.455 L 439.78100000000006 452.774 C 439.781 450.956 438.308 449.482 436.489 449.482 z" stroke-linecap="round" />
</g>
		<g transform="matrix(1 0 0 1 -15.9 177.58)"  >
<rect style="stroke: none; stroke-width: 1; stroke-dasharray: none; stroke-linecap: butt; stroke-dashoffset: 0; stroke-linejoin: miter; stroke-miterlimit: 4; fill: rgb(29,29,32); fill-rule: nonzero; opacity: 1;" vector-effect="non-scaling-stroke"  x="-16.438" y="-15.899" rx="0" ry="0" width="32.876" height="31.798" />
</g>
		<g transform="matrix(1 0 0 1 -68.39 220.97)"  >
<path style="stroke: none; stroke-width: 1; stroke-dasharray: none; stroke-linecap: butt; stroke-dashoffset: 0; stroke-linejoin: miter; stroke-miterlimit: 4; fill: rgb(29,29,32); fill-rule: nonzero; opacity: 1;" vector-effect="non-scaling-stroke"  transform=" translate(-187.61, -476.97)" d="M 191.326 496.759 L 191.326 474.92900000000003 C 191.326 460.874 202.719 449.482 216.773 449.482 L 163.981 449.482 C 160.926 449.482 158.45 451.958 158.45 455.01300000000003 L 158.45 504.45500000000004 L 199.022 504.45500000000004 C 194.772 504.455 191.326 501.009 191.326 496.759 z" stroke-linecap="round" />
</g>
		<g transform="matrix(1 0 0 1 43.12 113.99)"  >
<rect style="stroke: none; stroke-width: 1; stroke-dasharray: none; stroke-linecap: butt; stroke-dashoffset: 0; stroke-linejoin: miter; stroke-miterlimit: 4; fill: rgb(114,0,22); fill-rule: nonzero; opacity: 1;" vector-effect="non-scaling-stroke"  x="-108.3285" y="-79.4945" rx="0" ry="0" width="216.657" height="158.989" />
</g>
		<g transform="matrix(1 0 0 1 -41.77 113.99)"  >
<rect style="stroke: none; stroke-width: 1; stroke-dasharray: none; stroke-linecap: butt; stroke-dashoffset: 0; stroke-linejoin: miter; stroke-miterlimit: 4; fill: rgb(96,0,18); fill-rule: nonzero; opacity: 1;" vector-effect="non-scaling-stroke"  x="-23.444" y="-79.4945" rx="0" ry="0" width="46.888" height="158.989" />
</g>
		<g transform="matrix(1 0 0 1 105.5 37.89)"  >
<path style="stroke: none; stroke-width: 1; stroke-dasharray: none; stroke-linecap: butt; stroke-dashoffset: 0; stroke-linejoin: miter; stroke-miterlimit: 4; fill: rgb(114,0,22); fill-rule: nonzero; opacity: 1;" vector-effect="non-scaling-stroke"  transform=" translate(-361.5, -293.89)" d="M 331.992 304.751 C 361.84900000000005 304.751 389.216 302.38199999999995 407.44500000000005 298.548 L 407.44500000000005 283.026 L 394.047 291.935 C 384.122 298.535 353.00800000000004 303.394 315.555 304.508 C 320.917 304.668 326.411 304.751 331.992 304.751 z" stroke-linecap="round" />
</g>
		<g transform="matrix(1 0 0 1 43.12 -75.45)"  >
<path style="stroke: none; stroke-width: 1; stroke-dasharray: none; stroke-linecap: butt; stroke-dashoffset: 0; stroke-linejoin: miter; stroke-miterlimit: 4; fill: rgb(172,34,1); fill-rule: nonzero; opacity: 1;" vector-effect="non-scaling-stroke"  transform=" translate(-299.12, -180.55)" d="M 299.116 353.549 C 203.72199999999998 353.549 126.11399999999998 275.941 126.11399999999998 180.54699999999997 C 126.11399999999998 85.15299999999996 203.722 7.545 299.116 7.545 C 394.51 7.545 472.118 85.153 472.118 180.547 C 472.118 275.941 394.509 353.549 299.116 353.549 z" stroke-linecap="round" />
</g>
		<g transform="matrix(1 0 0 1 -33.95 -75.45)"  >
<path style="stroke: none; stroke-width: 1; stroke-dasharray: none; stroke-linecap: butt; stroke-dashoffset: 0; stroke-linejoin: miter; stroke-miterlimit: 4; fill: rgb(137,29,0); fill-rule: nonzero; opacity: 1;" vector-effect="non-scaling-stroke"  transform=" translate(-222.05, -180.55)" d="M 163.84 180.547 C 163.84 91.52799999999999 231.42700000000002 18.007000000000005 317.97900000000004 8.578000000000003 C 311.78100000000006 7.902000000000003 305.49100000000004 7.5450000000000035 299.11600000000004 7.5450000000000035 C 203.72200000000004 7.5450000000000035 126.11400000000003 85.153 126.11400000000003 180.54700000000003 C 126.11400000000003 275.94100000000003 203.72200000000004 353.54900000000004 299.11600000000004 353.54900000000004 C 305.49100000000004 353.54900000000004 311.78100000000006 353.19100000000003 317.97900000000004 352.516 C 231.427 343.087 163.84 269.566 163.84 180.547 z" stroke-linecap="round" />
</g>
		<g transform="matrix(1 0 0 1 -183.24 -107.79)"  >
<path style="stroke: none; stroke-width: 1; stroke-dasharray: none; stroke-linecap: butt; stroke-dashoffset: 0; stroke-linejoin: miter; stroke-miterlimit: 4; fill: rgb(137,29,0); fill-rule: nonzero; opacity: 1;" vector-effect="non-scaling-stroke"  transform=" translate(-72.76, -148.21)" d="M 72.758 181.086 C 54.631 181.086 39.882 166.33800000000002 39.882 148.21 C 39.882 130.082 54.631 115.334 72.758 115.334 C 90.88499999999999 115.334 105.63399999999999 130.082 105.63399999999999 148.21 C 105.63399999999999 166.33800000000002 90.885 181.086 72.758 181.086 z" stroke-linecap="round" />
</g>
		<g transform="matrix(1 0 0 1 -191.83 -107.79)"  >
<path style="stroke: none; stroke-width: 1; stroke-dasharray: none; stroke-linecap: butt; stroke-dashoffset: 0; stroke-linejoin: miter; stroke-miterlimit: 4; fill: rgb(114,0,22); fill-rule: nonzero; opacity: 1;" vector-effect="non-scaling-stroke"  transform=" translate(-64.17, -148.21)" d="M 71.277 148.211 C 71.277 135.76500000000001 78.23 124.912 88.455 119.33200000000001 C 83.788 116.78500000000001 78.439 115.33500000000001 72.758 115.33500000000001 C 54.631 115.33500000000001 39.882 130.083 39.882 148.211 C 39.882 166.33900000000003 54.631 181.08700000000002 72.758 181.08700000000002 C 78.44 181.08700000000002 83.788 179.63700000000003 88.455 177.09000000000003 C 78.23 171.509 71.277 160.657 71.277 148.211 z" stroke-linecap="round" />
</g>
		<g transform="matrix(1 0 0 1 43.12 -75.45)"  >
<path style="stroke: none; stroke-width: 1; stroke-dasharray: none; stroke-linecap: butt; stroke-dashoffset: 0; stroke-linejoin: miter; stroke-miterlimit: 4; fill: rgb(46,45,48); fill-rule: nonzero; opacity: 1;" vector-effect="non-scaling-stroke"  transform=" translate(-299.12, -180.55)" d="M 299.116 288.876 C 239.38299999999998 288.876 190.78799999999998 240.27999999999997 190.78799999999998 180.54799999999997 C 190.78799999999998 120.81599999999997 239.383 72.219 299.116 72.219 C 358.84899999999993 72.219 407.44399999999996 120.815 407.44399999999996 180.547 C 407.44399999999996 240.279 358.848 288.876 299.116 288.876 z" stroke-linecap="round" />
</g>
		<g transform="matrix(1 0 0 1 43.12 -75.45)"  >
<path style="stroke: none; stroke-width: 1; stroke-dasharray: none; stroke-linecap: butt; stroke-dashoffset: 0; stroke-linejoin: miter; stroke-miterlimit: 4; fill: rgb(137,135,144); fill-rule: nonzero; opacity: 1;" vector-effect="non-scaling-stroke"  transform=" translate(-299.12, -180.55)" d="M 299.116 213.423 C 280.989 213.423 266.24 198.675 266.24 180.547 C 266.24 162.41899999999998 280.98900000000003 147.671 299.116 147.671 C 317.243 147.671 331.99199999999996 162.41899999999998 331.99199999999996 180.547 C 331.99199999999996 198.675 317.243 213.423 299.116 213.423 z" stroke-linecap="round" />
</g>
		<g transform="matrix(1 0 0 1 43.12 -75.45)"  >
<path style="stroke: none; stroke-width: 1; stroke-dasharray: none; stroke-linecap: butt; stroke-dashoffset: 0; stroke-linejoin: miter; stroke-miterlimit: 4; fill: rgb(0,0,0); fill-rule: nonzero; opacity: 1;" vector-effect="non-scaling-stroke"  transform=" translate(-299.12, -180.55)" d="M 414.989 180.547 C 414.989 116.654 363.008 64.673 299.115 64.673 C 235.22200000000004 64.673 183.241 116.65299999999999 183.241 180.547 C 183.241 244.441 235.222 296.421 299.115 296.421 C 363.00800000000004 296.421 414.989 244.441 414.989 180.547 z M 199.411 180.547 C 199.411 125.56899999999999 244.138 80.842 299.116 80.842 C 354.09399999999994 80.842 398.82099999999997 125.56899999999999 398.82099999999997 180.547 C 398.82099999999997 235.525 354.094 280.252 299.116 280.252 C 244.13799999999998 280.252 199.411 235.525 199.411 180.547 z" stroke-linecap="round" />
</g>
		<g transform="matrix(1 0 0 1 43.12 -75.45)"  >
<path style="stroke: none; stroke-width: 1; stroke-dasharray: none; stroke-linecap: butt; stroke-dashoffset: 0; stroke-linejoin: miter; stroke-miterlimit: 4; fill: rgb(0,0,0); fill-rule: nonzero; opacity: 1;" vector-effect="non-scaling-stroke"  transform=" translate(-299.12, -180.55)" d="M 339.537 180.547 C 339.537 158.25799999999998 321.405 140.126 299.116 140.126 C 276.827 140.126 258.695 158.258 258.695 180.547 C 258.695 202.83599999999998 276.827 220.968 299.116 220.968 C 321.404 220.968 339.537 202.836 339.537 180.547 z M 274.863 180.547 C 274.863 167.174 285.743 156.29399999999998 299.116 156.29399999999998 C 312.488 156.29399999999998 323.36899999999997 167.17299999999997 323.36899999999997 180.54699999999997 C 323.36899999999997 193.91999999999996 312.489 204.79999999999995 299.116 204.79999999999995 C 285.743 204.8 274.863 193.921 274.863 180.547 z" stroke-linecap="round" />
</g>
		<g transform="matrix(1 0 0 1 0 0)"  >
<path style="stroke: none; stroke-width: 1; stroke-dasharray: none; stroke-linecap: butt; stroke-dashoffset: 0; stroke-linejoin: miter; stroke-miterlimit: 4; fill: rgb(0,0,0); fill-rule: nonzero; opacity: 1;" vector-effect="non-scaling-stroke"  transform=" translate(-256, -256)" d="M 431.604 441.937 L 414.989 441.937 L 414.989 320.674 C 414.989 320.111 414.931 319.56199999999995 414.82099999999997 319.031 C 454.426 285.885 479.66299999999995 236.111 479.66299999999995 180.547 C 479.663 80.993 398.669 0 299.116 0 C 199.563 0 118.568 80.993 118.568 180.547 C 118.568 236.11 143.805 285.884 183.41 319.031 C 183.29999999999998 319.561 183.242 320.111 183.242 320.674 L 183.242 365.55899999999997 C 121.783 327.03 83.363 260.516 80.964 187.793 C 99.331 183.99 113.179 167.68800000000002 113.179 148.211 C 113.179 125.92200000000001 95.047 107.79000000000002 72.75800000000001 107.79000000000002 C 50.46900000000002 107.79000000000002 32.33700000000001 125.92200000000003 32.33700000000001 148.211 C 32.33700000000001 167.77300000000002 46.30500000000001 184.13 64.79100000000001 187.84 C 67.31500000000001 269.478 112.09300000000002 343.887 183.24200000000002 384.392 L 183.24200000000002 441.938 L 166.627 441.938 C 157.95700000000002 441.938 150.905 448.991 150.905 457.65999999999997 L 150.905 498.977 C 150.905 506.159 156.747 512.001 163.929 512.001 L 434.302 512.001 C 441.48400000000004 512.001 447.326 506.159 447.326 498.977 L 447.326 457.65999999999997 C 447.326 448.989 440.274 441.937 431.604 441.937 z M 48.505 148.211 C 48.505 134.83800000000002 59.385000000000005 123.95800000000001 72.75800000000001 123.95800000000001 C 86.13100000000001 123.95800000000001 97.01100000000001 134.83700000000002 97.01100000000001 148.211 C 97.01100000000001 161.584 86.13100000000001 172.464 72.75800000000001 172.464 C 59.385000000000005 172.464 48.505 161.584 48.505 148.211 z M 134.737 180.547 C 134.737 89.908 208.47699999999998 16.168000000000006 299.116 16.168000000000006 C 389.755 16.168000000000006 463.495 89.908 463.495 180.547 C 463.495 271.186 389.755 344.926 299.116 344.926 C 208.47699999999998 344.926 134.737 271.186 134.737 180.547 z M 431.158 495.832 L 167.074 495.832 L 167.074 458.106 L 330.256 458.106 C 334.72099999999995 458.106 338.34 454.486 338.34 450.022 L 338.34 450.022 C 338.34 445.557 334.71999999999997 441.938 330.256 441.938 L 199.411 441.938 L 199.411 330.989 C 228 350 262.284 361.095 299.116 361.095 C 335.948 361.095 370.23199999999997 350 398.82099999999997 330.98900000000003 L 398.82099999999997 441.937 L 362.277 441.937 C 357.812 441.937 354.193 445.557 354.193 450.021 L 354.193 450.021 C 354.193 454.486 357.813 458.105 362.277 458.105 L 431.158 458.105 L 431.158 495.832 z" stroke-linecap="round" />
</g>
</g>
</g>
</svg>