<?xml version="1.0" encoding="iso-8859-1"?>
<!-- Uploaded to: SVG Repo, www.svgrepo.com, Generator: SVG Repo Mixer Tools -->
<svg fill="#000000" version="1.1" id="Layer_1" xmlns="http://www.w3.org/2000/svg" xmlns:xlink="http://www.w3.org/1999/xlink" 
	 viewBox="0 0 512.001 512.001" xml:space="preserve">
<g>
	<g>
		<path d="M460.828,426.442h-42.644V358.18c53.489-36.671,85.288-96.822,85.288-161.881C503.472,88.059,415.413,0,307.173,0
			S110.877,88.059,110.877,196.299c0,65.06,31.799,125.21,85.287,161.881v34.317c-13.977-1.479-43.511-7.781-71.147-34.217
			c-18.989-18.163-34.083-42.815-44.859-73.268c-12.758-36.051-19.51-80.478-20.125-132.119
			c19.419-4.04,34.055-21.283,34.055-41.883c0-23.588-19.19-42.779-42.779-42.779s-42.78,19.19-42.78,42.778
			c0,20.641,14.694,37.914,34.17,41.909c1.155,101.345,24.935,174.765,70.749,218.274c32.426,30.795,66.746,37.414,82.715,38.759
			v16.491H153.52v68.23h-42.51v17.328h392.327v-17.328h-42.51V426.442z M25.857,111.01c0-14.033,11.418-25.451,25.451-25.451
			s25.451,11.418,25.451,25.451c0,14.033-11.418,25.451-25.451,25.451S25.857,125.044,25.857,111.01z M128.204,196.299
			c0-98.685,80.286-178.971,178.969-178.971c98.685,0,178.971,80.286,178.971,178.971c0,60.762-30.411,116.841-81.356,150.015
			c-29.047,18.943-62.801,28.956-97.615,28.956c-34.813,0-68.566-10.012-97.613-28.956l-0.005-0.003
			C158.616,313.14,128.204,257.06,128.204,196.299z M400.857,368.803v57.639H213.492v-57.639
			c28.656,15.596,60.735,23.795,93.682,23.795C340.122,392.596,372.204,384.398,400.857,368.803z M443.5,494.672H170.848V443.77
			H443.5V494.672z"/>
	</g>
</g>
<g>
	<g>
		<rect x="230.414" y="460.562" width="153.524" height="17.328"/>
	</g>
</g>
<g>
	<g>
		<rect x="400.989" y="460.562" width="17.059" height="17.328"/>
	</g>
</g>
<g>
	<g>
		<rect x="196.302" y="460.562" width="17.057" height="17.328"/>
	</g>
</g>
<g>
	<g>
		<path d="M307.174,127.932c-37.697,0-68.365,30.669-68.365,68.366c0,37.697,30.668,68.366,68.365,68.366
			c37.697,0,68.366-30.669,68.366-68.366C375.541,158.601,344.871,127.932,307.174,127.932z M307.173,247.337
			c-28.141,0-51.037-22.896-51.037-51.039c0-28.143,22.895-51.038,51.037-51.038c28.144,0,51.039,22.896,51.039,51.039
			C358.212,224.441,335.317,247.337,307.173,247.337z"/>
	</g>
</g>
<g>
	<g>
		<path d="M324.095,196.299c0,9.332-7.591,16.922-16.922,16.922c-9.331,0-16.921-7.592-16.921-16.922
			c0-9.332,7.591-16.922,16.921-16.922v-17.328c-18.886,0-34.249,15.364-34.249,34.25s15.364,34.25,34.249,34.25
			s34.25-15.365,34.25-34.25H324.095z"/>
	</g>
</g>
<g>
	<g>
		<path d="M170.577,196.299h17.328c0-65.765,53.505-119.269,119.269-119.269V59.702C231.854,59.702,170.577,120.979,170.577,196.299
			z"/>
	</g>
</g>
<g>
	<g>
		<path d="M426.442,196.299c0,65.765-53.504,119.269-119.268,119.269v17.328c75.319,0,136.596-61.277,136.596-136.596H426.442z"/>
	</g>
</g>
<g>
	<g>
		<rect x="170.714" y="213.225" width="17.059" height="17.328"/>
	</g>
</g>
<g>
	<g>
		<rect x="426.577" y="162.05" width="17.059" height="17.328"/>
	</g>
</g>
<g>
	<g>
		<rect x="42.777" y="102.35" width="17.059" height="17.328"/>
	</g>
</g>
</svg>